<?xml version="1.0" encoding="UTF-8" standalone="no" ?>
<!DOCTYPE svg PUBLIC "-//W3C//DTD SVG 1.1//EN" "http://www.w3.org/Graphics/SVG/1.1/DTD/svg11.dtd">
<svg xmlns="http://www.w3.org/2000/svg" xmlns:xlink="http://www.w3.org/1999/xlink" version="1.1" width="152.48309999999998" height="140.43080000000003" xml:space="preserve">
<desc>Created with Fabric.js 1.6.0-rc.1</desc>
<defs></defs>
<g style="stroke: none; stroke-width: 1; stroke-dasharray: none; stroke-linecap: butt; stroke-linejoin: miter; stroke-miterlimit: 10; fill: none; fill-rule: nonzero; opacity: 1;" transform="translate(10.000000000000007 10.610000000000014) scale(0.24 0.23)" >
  <path d="M 514.584 325.123 l -65.146 25.699 l 20.32 66.939 l -69.328 -1.195 l -6.574 69.328 l -63.95 -27.492 l -32.869 61.561 l -48.411 -50.203 l -53.789 44.822 l -25.699 -65.145 L 102.2 470.356 l 1.195 -69.926 l -69.328 -6.574 l 27.492 -63.949 L 0 297.635 l 50.202 -49.009 L 5.378 194.838 l 65.145 -25.699 l -20.32 -66.34 l 69.328 1.195 l 6.574 -69.926 l 63.949 28.09 l 32.871 -62.156 l 48.413 50.201 l 53.789 -44.227 l 25.697 64.547 l 66.938 -20.32 l -1.195 69.926 l 69.328 6.574 l -27.492 63.949 l 61.563 32.273 l -50.203 48.411 L 514.584 325.123 z" style="stroke: none; stroke-width: 1; stroke-dasharray: none; stroke-linecap: butt; stroke-linejoin: miter; stroke-miterlimit: 10; fill: #eeff00; fill-rule: nonzero; opacity: 1;" transform="" stroke-linecap="round" />
</g>
<g style="stroke: none; stroke-width: 1; stroke-dasharray: none; stroke-linecap: butt; stroke-linejoin: miter; stroke-miterlimit: 10; fill: none; fill-rule: nonzero; opacity: 1;" transform="translate(22.659999999999975 10) scale(0.23 0.23)" >
  <path d="M 514.584 325.123 l -65.146 25.699 l 20.32 66.939 l -69.328 -1.195 l -6.574 69.328 l -63.95 -27.492 l -32.869 61.561 l -48.411 -50.203 l -53.789 44.822 l -25.699 -65.145 L 102.2 470.356 l 1.195 -69.926 l -69.328 -6.574 l 27.492 -63.949 L 0 297.635 l 50.202 -49.009 L 5.378 194.838 l 65.145 -25.699 l -20.32 -66.34 l 69.328 1.195 l 6.574 -69.926 l 63.949 28.09 l 32.871 -62.156 l 48.413 50.201 l 53.789 -44.227 l 25.697 64.547 l 66.938 -20.32 l -1.195 69.926 l 69.328 6.574 l -27.492 63.949 l 61.563 32.273 l -50.203 48.411 L 514.584 325.123 z" style="stroke: none; stroke-width: 1; stroke-dasharray: none; stroke-linecap: butt; stroke-linejoin: miter; stroke-miterlimit: 10; fill: #eeff08; fill-rule: nonzero; opacity: 1;" transform="" stroke-linecap="round" />
</g>
  <g transform="translate(61.88 70.22) scale(1.4 1.4)">
   <text font-family="Freebooter Script" font-size="40" font-weight="bold" style="stroke: none; stroke-width: 1; stroke-dasharray: none; stroke-linecap: butt; stroke-linejoin: miter; stroke-miterlimit: 10; fill: #000000; fill-rule: nonzero; opacity: 1;" ><tspan x="-24.18" y="8.98" style="stroke: none; stroke-width: 0; stroke-dasharray: none; stroke-linecap: butt; stroke-linejoin: miter; stroke-miterlimit: 4; fill: #000000; fill-rule: ; opacity: 1;">M</tspan></text>
 </g>
</svg>